<svg xmlns="http://www.w3.org/2000/svg" viewBox="0 0 284.5 265.7"><defs><style>.cls-1{fill:#ffe661;stroke-width:14px;}.cls-1,.cls-3,.cls-4,.cls-5{stroke:#1d1d1b;}.cls-1,.cls-2,.cls-3,.cls-4,.cls-5{stroke-miterlimit:10;}.cls-2,.cls-5{fill:none;stroke-width:4px;}.cls-2{stroke:#fff;}.cls-3{fill:#fff;stroke-width:3px;}.cls-4,.cls-6{fill:#1d1d1b;}</style></defs><g id="Layer_2" data-name="Layer 2"><g id="Layer_1-2" data-name="Layer 1"><circle class="cls-1" cx="142.25" cy="123.52" r="115.3"/><circle class="cls-2" cx="142.25" cy="123.52" r="115.3"/><path class="cls-3" d="M177.68,123.52A35.44,35.44,0,1,1,160,92.84,35.4,35.4,0,0,1,177.68,123.52Z"/><path class="cls-4" d="M111.57,105.73a35.23,35.23,0,0,1,13-13L71.38.68A141.9,141.9,0,0,0,.5,123.44H106.82A35.28,35.28,0,0,1,111.57,105.73Z"/><path class="cls-4" d="M124.54,154.13,71.39,246.19a141.66,141.66,0,0,0,141.74,0L160,154.13A35.42,35.42,0,0,1,124.54,154.13Z"/><path class="cls-4" d="M177.68,123.44H284A141.65,141.65,0,0,0,213.12.7L160,92.76A35.38,35.38,0,0,1,177.68,123.44Z"/><circle class="cls-5" cx="142.25" cy="123.44" r="85.04"/><polygon class="cls-6" points="142.15 56.05 143.9 56.05 143.02 69.89 142.15 83.74 141.27 69.89 140.39 56.05 142.15 56.05"/><circle class="cls-6" cx="142.15" cy="56.05" r="1.76"/><polygon class="cls-6" points="153.77 63.83 155.5 64.12 152.91 74.17 150.31 84.21 151.17 73.88 152.03 63.54 153.77 63.83"/><circle class="cls-6" cx="153.77" cy="63.83" r="1.76"/><polygon class="cls-6" points="161.77 73.53 163.42 74.13 160.38 79.95 157.34 85.78 158.73 79.36 160.11 72.93 161.77 73.53"/><circle class="cls-6" cx="161.77" cy="73.53" r="1.76"/><polygon class="cls-6" points="122.41 74.16 124.05 73.53 125.58 79.92 127.12 86.31 123.94 80.55 120.77 74.8 122.41 74.16"/><circle class="cls-6" cx="122.41" cy="74.16" r="1.76"/><polygon class="cls-6" points="130.71 63.94 132.43 63.6 133.6 73.91 134.77 84.21 131.88 74.25 128.99 64.29 130.71 63.94"/><circle class="cls-6" cx="130.71" cy="63.94" r="1.76"/><polygon class="cls-6" points="201.67 156.6 200.79 158.12 189.24 150.44 177.68 142.75 190.12 148.91 202.55 155.07 201.67 156.6"/><circle class="cls-6" cx="201.67" cy="156.6" r="1.76"/><polygon class="cls-6" points="189.12 162.77 188 164.13 180.59 156.86 173.19 149.59 181.72 155.5 190.24 161.42 189.12 162.77"/><circle class="cls-6" cx="189.12" cy="162.77" r="1.76"/><polygon class="cls-6" points="176.72 164.85 175.37 165.98 171.85 160.44 168.33 154.89 173.19 159.3 178.06 163.72 176.72 164.85"/><circle class="cls-6" cx="176.72" cy="164.85" r="1.76"/><polygon class="cls-6" points="195.85 130.45 195.58 132.19 189.28 130.32 182.98 128.45 189.55 128.58 196.12 128.71 195.85 130.45"/><circle class="cls-6" cx="195.85" cy="130.45" r="1.76"/><polygon class="cls-6" points="200.55 142.75 199.99 144.41 190.47 140.27 180.96 136.13 191.04 138.61 201.11 141.08 200.55 142.75"/><circle class="cls-6" cx="200.55" cy="142.75" r="1.76"/><polygon class="cls-6" points="83.31 156.63 82.43 155.11 94.86 148.95 107.29 142.79 95.74 150.47 84.19 158.16 83.31 156.63"/><circle class="cls-6" cx="83.31" cy="156.64" r="1.76"/><polygon class="cls-6" points="84.24 142.68 83.62 141.03 93.62 138.25 103.61 135.48 94.23 139.9 84.85 144.33 84.24 142.68"/><circle class="cls-6" cx="84.24" cy="142.68" r="1.76"/><polygon class="cls-6" points="88.64 130.9 88.33 129.17 94.89 128.89 101.46 128.61 95.2 130.62 88.95 132.63 88.64 130.9"/><circle class="cls-6" cx="88.64" cy="130.9" r="1.76"/><polygon class="cls-6" points="108.86 164.67 107.49 163.57 112.26 159.04 117.03 154.52 113.63 160.15 110.23 165.77 108.86 164.67"/><circle class="cls-6" cx="108.86" cy="164.67" r="1.76"/><polygon class="cls-6" points="95.86 162.59 94.7 161.27 103.04 155.1 111.39 148.94 104.2 156.42 97.02 163.91 95.86 162.59"/><circle class="cls-6" cx="95.86" cy="162.59" r="1.76"/></g></g></svg>